<svg xmlns="http://www.w3.org/2000/svg" xmlns:svg="http://www.w3.org/2000/svg" id="Layer_1" width="205.606" height="122.972" x="0" y="0" version="1.1" viewBox="0 0 205.606 122.972" xml:space="preserve"><style id="style2" type="text/css">.st1{fill:#ac55ff}</style><g id="g16" transform="matrix(0.81,0,0,0.81,-104.55448,-145.88493)" style="fill:#ba6600;fill-opacity:1"><g id="g8" style="fill:#ba6600;fill-opacity:1"><path id="path6" d="m 166.9,196.4 c -3.3,-2.8 -8.2,-2.4 -11,0.8 -2.5,2.9 -2.5,7.2 0,10.1 l 47,47.1 -47,47.1 c -3.3,2.8 -3.6,7.7 -0.8,11 2.8,3.3 7.7,3.6 11,0.8 0.3,-0.3 0.6,-0.5 0.8,-0.8 l 52.6,-52.6 c 3,-3 3,-7.9 0,-11 z" class="st1" style="fill:#ba6600;fill-opacity:1"/></g><g id="g14" style="fill:#ba6600;fill-opacity:1"><path id="path10" d="M 350.3,301.2 H 241.2 c -4.3,0 -7.8,3.5 -7.8,7.8 0,4.3 3.5,7.8 7.8,7.8 h 109.1 c 4.3,0 7.8,-3.5 7.8,-7.8 0,-4.3 -3.5,-7.8 -7.8,-7.8 z" class="st1" style="fill:#ba6600;fill-opacity:1"/><path id="path12" d="M 350.3,317.5 H 241.2 c -4.7,0 -8.5,-3.8 -8.5,-8.5 0,-4.7 3.8,-8.5 8.5,-8.5 h 109.1 c 4.7,0 8.5,3.8 8.5,8.5 0,4.7 -3.8,8.5 -8.5,8.5 z M 241.2,301.9 c -3.9,0 -7,3.2 -7,7 0,3.8 3.2,7 7,7 h 109.1 c 3.9,0 7,-3.2 7,-7 0,-3.8 -3.2,-7 -7,-7 z" class="st1" style="fill:#ba6600;fill-opacity:1"/></g></g></svg>